<svg xmlns="http://www.w3.org/2000/svg" width="1280" height="800" viewBox="0 0 1280 800"><defs><radialGradient id="bg" cx="50%" cy="58%" r="75%"><stop offset="0" stop-color="#6d2b14"/><stop offset=".5" stop-color="#1b100c"/><stop offset="1" stop-color="#0d0908"/></radialGradient><filter id="g"><feGaussianBlur stdDeviation="12"/><feMerge><feMergeNode/><feMergeNode in="SourceGraphic"/></feMerge></filter></defs><rect width="1280" height="800" fill="url(#bg)"/><ellipse cx="640" cy="394" rx="512" ry="276" fill="#241f1c" stroke="#0e0a09" stroke-width="26"/><ellipse cx="640" cy="430" rx="440" ry="200" fill="#3a2416"/><ellipse cx="640" cy="455" rx="390" ry="132" fill="#b4a391"/><g filter="url(#g)" fill="#ff8a2b" opacity=".85"><circle cx="414" cy="500" r="58"/><circle cx="860" cy="488" r="64"/><circle cx="550" cy="536" r="42"/><circle cx="735" cy="538" r="46"/><circle cx="660" cy="400" r="38"/></g><g stroke="#ffd45d" stroke-width="5" stroke-linecap="round" opacity=".9"><path d="M414 500q100-96 246-100q102 5 200 88" fill="none"/><path d="M414 500q160 70 321 38q80-10 125-50" fill="none"/></g><g filter="url(#g)"><circle cx="635" cy="452" r="96" fill="#ff8a2b" opacity=".22"/><path d="M564 421q18-74 90-70q84 11 78 93q-5 78-88 89q-88-5-80-112z" fill="#3b1711" stroke="#170a08" stroke-width="7"/><path d="M612 368l22 35M690 377l-25 35M580 460l44-8M700 502l-30-42" stroke="#ffc15b" stroke-width="8" stroke-linecap="round"/><path d="M604 432q24 22 48 0M684 432q24 22 48 0M620 485q33 28 70 0" fill="none" stroke="#fff0c9" stroke-width="8" stroke-linecap="round"/></g><g filter="url(#g)" fill="#ffd45d"><circle cx="360" cy="430" r="5"/><circle cx="442" cy="410" r="7"/><circle cx="900" cy="420" r="6"/><circle cx="792" cy="590" r="5"/><circle cx="605" cy="315" r="6"/><circle cx="690" cy="590" r="5"/></g><text x="640" y="120" text-anchor="middle" fill="#ffe9d6" opacity=".72" font-size="30" font-family="Quicksand,Arial">he lit up his little friends!</text></svg>
